# xmcd
#
# Track frame offsets:
#	150
#	16843
#	34244
#	54073
#	80610
#	95344
#	123294
#	145704
#	164162
#	182765
#	219289
#
# Disc length: 3386 seconds
#
# Revision: 0
# Processed by: cddbd v1.5.2PL0 Copyright (c) Steve Scherf et al.
# Submitted via: audiograbber 1.83.01
#
DISCID=890d380b
DTITLE=Somebody Wrong Bluesband - Ain't Nobody Here But Us Chickens
DYEAR=2012
DGENRE=Blues
TTITLE0=House On A Hill
TTITLE1=Honey Hush
TTITLE2=Ain't Nobody Here But Us Chickens
TTITLE3=How Sweet It Is (To Be Loved By You)
TTITLE4=Can't Get Next to You
TTITLE5=Spooky
TTITLE6=Done Somebody Wrong
TTITLE7=Further On Up The Road
TTITLE8=Mustang Sally
TTITLE9=Whipping Post
TTITLE10=Cocaine
EXTD=www.somebody-wrong.de
EXTT0=
EXTT1=
EXTT2=
EXTT3=
EXTT4=
EXTT5=
EXTT6=
EXTT7=
EXTT8=
EXTT9=
EXTT10=
PLAYORDER=
